<svg width="6" height="8" viewBox="0 0 6 8" xmlns="http://www.w3.org/2000/svg">
<path fill-rule="evenodd" clip-rule="evenodd" d="M3.16433 1.47002C2.86809 1.4192 2.56343 1.47487 2.3043 1.62716C2.04517 1.77946 1.8483 2.01854 1.74856 2.30208C1.63193 2.63362 1.26862 2.80784 0.937083 2.69121C0.605544 2.57458 0.431324 2.21127 0.547952 1.87973C0.747434 1.31266 1.14117 0.834489 1.65943 0.529905C2.17769 0.225321 2.78701 0.113983 3.3795 0.215609C3.97198 0.317235 4.50937 0.625268 4.8965 1.08515C5.28355 1.54494 5.49543 2.12685 5.49462 2.72785C5.49433 3.70171 4.77231 4.34484 4.2567 4.68857C3.97948 4.87339 3.70679 5.00928 3.50591 5.09856C3.40457 5.1436 3.31923 5.17778 3.25774 5.2012C3.22694 5.21294 3.20197 5.22203 3.18379 5.22849L3.16169 5.23623L3.15465 5.23864L3.15217 5.23947L3.1512 5.2398C3.15101 5.23986 3.1504 5.24007 2.94916 4.63636L3.1504 5.24007C2.81698 5.35121 2.4566 5.17101 2.34546 4.8376C2.23439 4.5044 2.41427 4.14427 2.74726 4.03287L2.74645 4.03315C2.74651 4.03313 2.74657 4.03311 2.74726 4.03287L2.75742 4.02931C2.76721 4.02583 2.78325 4.02001 2.80465 4.01186C2.84756 3.99551 2.91137 3.97003 2.98901 3.93552C3.14608 3.86571 3.35067 3.76297 3.55072 3.6296C3.98956 3.33704 4.22189 3.02581 4.22189 2.72727L4.22189 2.72632C4.22234 2.42575 4.1164 2.13473 3.92283 1.90479C3.72927 1.67485 3.46057 1.52083 3.16433 1.47002Z"/>
<path fill-rule="evenodd" clip-rule="evenodd" d="M3.00013 7.81818C3.35159 7.81818 3.6365 7.53327 3.6365 7.18182C3.6365 6.83036 3.35159 6.54545 3.00013 6.54545C2.64868 6.54545 2.36377 6.83036 2.36377 7.18182C2.36377 7.53327 2.64868 7.81818 3.00013 7.81818Z"/>
</svg>
